<?xml version="1.0" encoding="utf-8"?>
<!-- Generator: Adobe Illustrator 23.0.4, SVG Export Plug-In . SVG Version: 6.00 Build 0)  -->
<svg version="1.1" id="Capa_1" xmlns="http://www.w3.org/2000/svg" xmlns:xlink="http://www.w3.org/1999/xlink" x="0px" y="0px"
	 viewBox="0 0 135 23" style="enable-background:new 0 0 135 23;" xml:space="preserve">
<style type="text/css">
	.st0{clip-path:url(#SVGID_2_);}
	.st1{clip-path:url(#SVGID_4_);fill:#FF0000;}
</style>
<g>
	<g>
		<defs>
			<path id="SVGID_1_" d="M17.1,8.1l-3.9-6.6c-0.3-0.5-0.5-1-0.6-1.6l-0.2,0.3c-1,1.6-1,3.6,0,5.2l3.1,5.2c1,1.6,1,3.6,0,5.2
				l-0.2,0.3c-0.1-0.5-0.3-1.1-0.6-1.6L10,6.6C9.7,6.1,9.5,5.6,9.4,5L9.3,5.5c-1,1.6-1,3.6,0,5.2l3.1,5.3c1,1.6,1,3.6,0,5.2
				l-0.2,0.3c-0.1-0.5-0.3-1.1-0.6-1.6l-3.9-6.6C7.2,12.5,7,11.5,7,10.5c-4.2,1.1-7,3.3-7,5.9C0,20.1,5.6,23,12.4,23
				c6.9,0,12.4-2.9,12.4-6.6c0-2.6-2.9-4.9-7-5.9C17.8,9.7,17.5,8.9,17.1,8.1z M29.6,21.7c0-0.9,0.2-1.6,0.4-2.3
				c1.3,0.6,3,0.9,4.3,0.9c2.2,0,3.4-0.7,3.4-2s-0.9-1.9-3.1-2.9l-1.2-0.5c-2.2-0.9-3.7-2.1-3.7-4.5c0-2.6,1.8-4.2,5.6-4.2
				c1.5,0,2.9,0.2,4.3,0.7c-0.1,0.9-0.2,1.6-0.5,2.3c-1.3-0.5-2.8-0.7-3.8-0.7c-2,0-3,0.8-3,2s0.9,1.9,2.5,2.5l1.3,0.5
				c3,1.2,4.2,2.5,4.2,4.7c0,2.6-2,4.4-6,4.4C32.4,22.6,30.9,22.3,29.6,21.7z M52.9,10.9v11.4h-2.4l-0.1-1.4c-0.7,1-1.7,1.6-3.3,1.6
				c-3.1,0-5.1-2.2-5.1-6c0-4,2.2-6.3,6.5-6.3C50.1,10.2,51.5,10.4,52.9,10.9z M50.3,19.6v-7.1c-0.5-0.1-1.1-0.1-1.8-0.1
				c-2.7,0-3.9,1.6-3.9,4.1c0,2.3,1,4,3.2,4C48.8,20.5,49.6,20.1,50.3,19.6z M66,14.6v7.6h-2.6V15c0-1.8-0.6-2.7-3.2-2.7
				c-0.6,0-1.3,0.1-2,0.2v9.7h-2.6V10.9c1.6-0.4,3.4-0.6,4.7-0.6C64.6,10.2,66,11.9,66,14.6z M73.1,20.4c0.7,0,1.4-0.1,2-0.3
				c-0.1,0.7-0.2,1.5-0.3,2.1c-0.7,0.3-1.4,0.4-2.2,0.4c-2.5,0-4.1-1.1-4.1-3.9v-12c0.8-0.2,1.8-0.4,2.6-0.4v4.3h4.1
				c0,0.8-0.1,1.5-0.2,2.1h-3.8v5.6C71.2,19.8,71.9,20.4,73.1,20.4z M86.9,10.9v11.4h-2.4l-0.1-1.4c-0.7,1-1.7,1.6-3.3,1.6
				c-3.1,0-5.1-2.2-5.1-6c0-4,2.2-6.3,6.5-6.3C84.2,10.2,85.6,10.4,86.9,10.9z M84.4,19.6v-7.1c-0.5-0.1-1.1-0.1-1.8-0.1
				c-2.7,0-3.9,1.6-3.9,4.1c0,2.3,1,4,3.2,4C82.9,20.5,83.7,20.1,84.4,19.6z M100.1,14.6v7.6h-2.6V15c0-1.8-0.6-2.7-3.2-2.7
				c-0.6,0-1.3,0.1-2,0.2v9.7h-2.6V10.9c1.6-0.4,3.4-0.6,4.7-0.6C98.7,10.2,100.1,11.9,100.1,14.6z M113.1,6.3v15.9h-2.4l-0.1-1.5
				c-0.7,1.1-1.7,1.7-3.3,1.7c-3.1,0-5.1-2.2-5.1-6c0-4,2.2-6.3,6.5-6.3c0.7,0,1.3,0.1,1.9,0.2V6.7C111.3,6.4,112.3,6.3,113.1,6.3z
				 M110.6,19.6v-7c-0.7-0.1-1.4-0.2-2.1-0.2c-2.5,0-3.8,1.5-3.8,4.1c0,2.3,1,4,3.2,4C109,20.5,109.9,20.1,110.6,19.6z M126,17.4
				h-8.2c0.3,2,1.5,3,3.8,3c1.4,0,2.8-0.3,4.1-0.9c-0.1,0.7-0.2,1.5-0.4,2.3c-1.2,0.5-2.4,0.7-3.8,0.7c-4.3,0-6.4-2.3-6.4-6.2
				c0-3.4,1.6-6.1,5.7-6.1c3.7,0,5.3,2.3,5.3,5.2C126.2,16.1,126.1,16.7,126,17.4z M117.8,15.3h5.8c0-1.9-1-3-2.8-3
				C118.9,12.3,118,13.4,117.8,15.3z M135,10.3c0,0.7-0.1,1.7-0.2,2.1c-0.6-0.1-1.2-0.1-1.9-0.1c-0.6,0-1.3,0-1.9,0.1v9.7h-2.6V10.9
				c1.1-0.4,2.9-0.6,4.4-0.6C133.6,10.2,134.4,10.3,135,10.3z"/>
		</defs>
		<clipPath id="SVGID_2_">
			<use xlink:href="#SVGID_1_"  style="overflow:visible;"/>
		</clipPath>
		<g class="st0">
			<g>
				<defs>
					<rect id="SVGID_3_" x="-194" y="-181" width="1024" height="668"/>
				</defs>
				<clipPath id="SVGID_4_">
					<use xlink:href="#SVGID_3_"  style="overflow:visible;"/>
				</clipPath>
				<rect x="-5" y="-5" class="st1" width="145" height="33"/>
			</g>
		</g>
	</g>
</g>
</svg>
